<svg xmlns="http://www.w3.org/2000/svg" viewBox="0 0 64 64">
  <rect width="64" height="64" rx="10.24" fill="#E9EBEE"/>
  <path transform="matrix(0.05303 0 0 -0.05303 15.256 51.200)" d="M62.28271484375 0V527.0869140625H197.43359375L209.06396484375 451.65234375H216.06396484375Q235.6943359375 479.45654296875 262.096435546875 499.04345703125Q288.49853515625 518.63037109375 321.357177734375 528.858642578125Q354.2158203125 539.0869140625 391.12890625 539.0869140625Q448.19384765625 539.0869140625 487.78076171875 518.097900390625Q527.36767578125 497.10888671875 548.28076171875 454.93505859375Q569.19384765625 412.76123046875 569.19384765625 347.93505859375V0H404.89111328125V324.84814453125Q404.89111328125 346.8701171875 399.47802734375 362.65283203125Q394.06494140625 378.435546875 384.010498046875 389.120361328125Q373.9560546875 399.80517578125 358.945068359375 405.076904296875Q343.93408203125 410.3486328125 324.6513671875 410.3486328125Q295.9990234375 410.3486328125 273.8466796875 396.794189453125Q251.6943359375 383.23974609375 238.91162109375 360.402587890625Q226.12890625 337.5654296875 226.12890625 308.173828125V0ZM119.3916015625 592.95703125Q119.3916015625 627.130859375 133.2392578125 657.163330078125Q147.0869140625 687.19580078125 173.793212890625 705.641357421875Q200.49951171875 724.0869140625 238.390625 724.0869140625Q267.6513671875 724.0869140625 293.95556640625 714.771728515625Q320.259765625 705.45654296875 345.248779296875 695.9130859375Q370.23779296875 686.36962890625 395.41162109375 686.36962890625Q412.12890625 686.36962890625 423.074462890625 696.04345703125Q434.02001953125 705.71728515625 437.650390625 724.0869140625H512.71533203125Q512.71533203125 690.36962890625 498.86767578125 660.60888671875Q485.02001953125 630.84814453125 458.5419921875 611.902587890625Q432.06396484375 592.95703125 393.71630859375 592.95703125Q364.912109375 592.95703125 338.379638671875 602.50048828125Q311.84716796875 612.0439453125 287.08642578125 621.58740234375Q262.32568359375 631.130859375 237.15185546875 631.130859375Q220.89111328125 631.130859375 209.71728515625 621.228759765625Q198.54345703125 611.32666015625 194.9130859375 592.95703125Z" fill="#14171C"/>
</svg>
